# xmcd
#
# Track frame offsets:
#	150
#	12697
#	31835
#	46746
#	64756
#	82309
#	98980
#	116484
#
# Disc length: 1805 seconds
#
# Revision: 1
# Processed by: cddbd v1.5PL3 Copyright (c) Steve Scherf et al.
# Submitted via: audiograbber 1.83.01
#
DISCID=65070b08
DTITLE=Dixie Road - Serious Fun
DYEAR=1998
DGENRE=Country
TTITLE0=Get A Little
TTITLE1=It Must Be Her
TTITLE2=She'll Never Be Lonely
TTITLE3=Angels Can Fly
TTITLE4=Serious Fun
TTITLE5=If I Didn't Know Better
TTITLE6=All I Need Is A Little Time
TTITLE7=Can't Wait To See You Again
EXTD=
EXTT0=
EXTT1=
EXTT2=
EXTT3=
EXTT4=
EXTT5=
EXTT6=
EXTT7=
PLAYORDER=
